# xmcd CD database file
#
# Track frame offsets:
#	150
#	19721
#	48283
#	72472
#	93283
#	114627
#	135248
#	156598
#	178665
#
# Disc length: 2604 seconds
#
# Revision: 0
# Processed by: cddbd v1.5.2PL0 Copyright (c) Steve Scherf et al.
# Submitted via: CDex 1.70beta2
#
DISCID=740a2a09
DTITLE=Editors - In This Light  And On This Evening
DYEAR=1900
DGENRE=New Age
TTITLE0=In This Light And On This Even
TTITLE1=Bricks And Mortar
TTITLE2=Papillon
TTITLE3=You Don't Know Love
TTITLE4=The Big Exit
TTITLE5=The Boxer
TTITLE6=Like Treasure
TTITLE7=Eat Raw Meat =Blood Drool
TTITLE8=Walk The Fleet Road
EXTD=
EXTT0=
EXTT1=
EXTT2=
EXTT3=
EXTT4=
EXTT5=
EXTT6=
EXTT7=
EXTT8=
PLAYORDER=
